# xmcd CD database file
#
# Track frame offsets:
#	150
#	66299
#	106758
#	134245
#	143900
#	194557
#
# Disc length: 3237 seconds
#
# Revision: 0
# Processed by: cddbd v1.5.1PL0 Copyright (c) Steve Scherf et al.
# Submitted via: CDex 1.51
#
DISCID=5f0ca306
DTITLE=Dave Alvin and the Guilty Men - Tractor Tavern - 2005-01-22 (disk 2)
DYEAR=2005
DGENRE=Country
TTITLE0=Somewhere i Time
TTITLE1=Ashgrove
TTITLE2=East Virginia Blues
TTITLE3=Fourth of July
TTITLE4=Mar Brown
TTITLE5=Surf Medley feat. Los Straightjackets 
EXTD=YEAR: 2005
EXTT0=
EXTT1=
EXTT2=
EXTT3=
EXTT4=
EXTT5=
PLAYORDER=
